ffmpeg started on 2025-05-24 at 15:19:56
Report written to "D:\Convert\FFMetrics\reports\psnr_report-6.txt"
Log level: 32
Command line:
ffmpeg -hide_banner -nostdin -i "G:\\\xc0\xed\xe8\xec\xe5\\\xce\xed\xe3\xee\xe8\xed\xe3\xe8\\!_33_\xc7\xe8\xec\xe0_2024\\DreamCast\\\xcd\xe5\xf0\xe0\xe7\xf3\xec\xed\xfb\xe9 \xe0\xed\xe3\xe5\xeb \xe2 \xf2\xe0\xed\xf6\xe5 \xf1 \xe4\xe5\xec\xee\xed\xee\xec\\[DC] Oroka na Tenshi wa Akuma to Odoru - 11_Telegram_HEVC.mkv" -i "G:\\\xc0\xed\xe8\xec\xe5\\\xce\xed\xe3\xee\xe8\xed\xe3\xe8\\!_33_\xc7\xe8\xec\xe0_2024\\DreamCast\\\xcd\xe5\xf0\xe0\xe7\xf3\xec\xed\xfb\xe9 \xe0\xed\xe3\xe5\xeb \xe2 \xf2\xe0\xed\xf6\xe5 \xf1 \xe4\xe5\xec\xee\xed\xee\xec\\[DC] Oroka na Tenshi wa Akuma to Odoru - 11_Telegram.mp4" -lavfi "[0:v]settb=AVTB,setpts=PTS-STARTPTS,format=pix_fmts=yuv420p10,fps=24000/1001,scale=1920:1080:flags=bicubic[main];[1:v]settb=AVTB,setpts=PTS-STARTPTS,format=pix_fmts=yuv420p,fps=24000/1001,scale=1920:1080:flags=bicubic[ref];[main][ref]psnr=eof_action=endall:stats_file='D\\:/Convert/FFMetrics/logs/psnr_logfile-6.txt'" -f null -
Input #0, matroska,webm, from 'G:\Аниме\Онгоинги\!_33_Зима_2024\DreamCast\Неразумный ангел в танце с демоном\[DC] Oroka na Tenshi wa Akuma to Odoru - 11_Telegram_HEVC.mkv':
  Metadata:
    COMPATIBLE_BRANDS: isomiso2avc1mp41
    MAJOR_BRAND     : isom
    MINOR_VERSION   : 512
    ENCODER         : Lavf61.7.100
  Duration: 00:23:46.73, start: -0.021000, bitrate: 1245 kb/s
  Stream #0:0: Video: hevc (Main 10), yuv420p10le(tv, bt709, progressive), 1920x1080 [SAR 1:1 DAR 16:9], 23.98 fps, 23.98 tbr, 1k tbn (default)
      Metadata:
        HANDLER_NAME    : VideoHandler
        VENDOR_ID       : [0][0][0][0]
        ENCODER         : Lavc61.19.100 libx265
        BPS             : 1047985
        DURATION        : 00:23:46.633708333
        NUMBER_OF_FRAMES: 34205
        NUMBER_OF_BYTES : 186886254
        _STATISTICS_WRITING_APP: mkvpropedit v66.0.0 ('Josie') 64-bit
        _STATISTICS_WRITING_DATE_UTC: 2025-05-23 16:44:57
        _STATISTICS_TAGS: BPS DURATION NUMBER_OF_FRAMES NUMBER_OF_BYTES
  Stream #0:1: Audio: aac (LC), 48000 Hz, stereo, fltp (default)
      Metadata:
        HANDLER_NAME    : SoundHandler
        VENDOR_ID       : [0][0][0][0]
        ENCODER         : Lavc61.19.100 aac
        BPS             : 193974
        DURATION        : 00:23:46.730000000
        NUMBER_OF_FRAMES: 66879
        NUMBER_OF_BYTES : 34593705
        _STATISTICS_WRITING_APP: mkvpropedit v66.0.0 ('Josie') 64-bit
        _STATISTICS_WRITING_DATE_UTC: 2025-05-23 16:44:57
        _STATISTICS_TAGS: BPS DURATION NUMBER_OF_FRAMES NUMBER_OF_BYTES
Input #1, mov,mp4,m4a,3gp,3g2,mj2, from 'G:\Аниме\Онгоинги\!_33_Зима_2024\DreamCast\Неразумный ангел в танце с демоном\[DC] Oroka na Tenshi wa Akuma to Odoru - 11_Telegram.mp4':
  Metadata:
    major_brand     : isom
    minor_version   : 512
    compatible_brands: isomiso2avc1mp41
    encoder         : Lavf60.16.100
  Duration: 00:23:46.70, start: 0.000000, bitrate: 3931 kb/s
  Stream #1:0[0x1](und): Video: h264 (High) (avc1 / 0x31637661), yuv420p(tv, bt709, progressive), 1920x1080 [SAR 1:1 DAR 16:9], 3783 kb/s, 23.98 fps, 23.98 tbr, 24k tbn (default)
      Metadata:
        handler_name    : VideoHandler
        vendor_id       : [0][0][0][0]
        encoder         : Lavc60.31.102 h264_qsv
  Stream #1:1[0x2](und): Audio: aac (HE-AACv2) (mp4a / 0x6134706D), 48000 Hz, stereo, fltp, 144 kb/s (default)
      Metadata:
        handler_name    : SoundHandler
        vendor_id       : [0][0][0][0]
Stream mapping:
  Stream #0:0 (hevc) -> settb:default
  Stream #1:0 (h264) -> settb:default
  psnr:default -> Stream #0:0 (wrapped_avframe)
  Stream #0:1 -> #0:1 (aac (native) -> pcm_s16le (native))
Output #0, null, to 'pipe:':
  Metadata:
    COMPATIBLE_BRANDS: isomiso2avc1mp41
    MAJOR_BRAND     : isom
    MINOR_VERSION   : 512
    encoder         : Lavf61.7.100
  Stream #0:0: Video: wrapped_avframe, yuv420p10le(tv, bt709, progressive), 1920x1080 [SAR 1:1 DAR 16:9], q=2-31, 200 kb/s, 23.98 fps, 23.98 tbn
      Metadata:
        encoder         : Lavc61.19.100 wrapped_avframe
  Stream #0:1: Audio: pcm_s16le, 48000 Hz, stereo, s16, 1536 kb/s (default)
      Metadata:
        HANDLER_NAME    : SoundHandler
        VENDOR_ID       : [0][0][0][0]
        _STATISTICS_TAGS: BPS DURATION NUMBER_OF_FRAMES NUMBER_OF_BYTES
        BPS             : 193974
        DURATION        : 00:23:46.730000000
        NUMBER_OF_FRAMES: 66879
        NUMBER_OF_BYTES : 34593705
        _STATISTICS_WRITING_APP: mkvpropedit v66.0.0 ('Josie') 64-bit
        _STATISTICS_WRITING_DATE_UTC: 2025-05-23 16:44:57
        encoder         : Lavc61.19.100 pcm_s16le
frame=  195 fps=0.0 q=-0.0 size=N/A time=00:00:08.13 bitrate=N/A speed=15.5x    frame=  476 fps=460 q=-0.0 size=N/A time=00:00:19.85 bitrate=N/A speed=19.2x    frame=  756 fps=489 q=-0.0 size=N/A time=00:00:31.53 bitrate=N/A speed=20.4x    frame= 1044 fps=504 q=-0.0 size=N/A time=00:00:43.54 bitrate=N/A speed=  21x    frame= 1326 fps=513 q=-0.0 size=N/A time=00:00:55.30 bitrate=N/A speed=21.4x    frame= 1610 fps=518 q=-0.0 size=N/A time=00:01:07.15 bitrate=N/A speed=21.6x    frame= 1893 fps=523 q=-0.0 size=N/A time=00:01:18.95 bitrate=N/A speed=21.8x    frame= 2136 fps=517 q=-0.0 size=N/A time=00:01:29.08 bitrate=N/A speed=21.6x    frame= 2377 fps=512 q=-0.0 size=N/A time=00:01:39.14 bitrate=N/A speed=21.4x    frame= 2583 fps=500 q=-0.0 size=N/A time=00:01:47.73 bitrate=N/A speed=20.9x    frame= 2805 fps=494 q=-0.0 size=N/A time=00:01:56.99 bitrate=N/A speed=20.6x    frame= 3013 fps=487 q=-0.0 size=N/A time=00:02:05.66 bitrate=N/A speed=20.3x    frame= 3252 fps=484 q=-0.0 size=N/A time=00:02:15.63 bitrate=N/A speed=20.2x    frame= 3475 fps=481 q=-0.0 size=N/A time=00:02:24.93 bitrate=N/A speed=20.1x    frame= 3639 fps=470 q=-0.0 size=N/A time=00:02:31.77 bitrate=N/A speed=19.6x    frame= 3839 fps=465 q=-0.0 size=N/A time=00:02:40.11 bitrate=N/A speed=19.4x    frame= 4094 fps=467 q=-0.0 size=N/A time=00:02:50.75 bitrate=N/A speed=19.5x    frame= 4336 fps=467 q=-0.0 size=N/A time=00:03:00.84 bitrate=N/A speed=19.5x    frame= 4612 fps=470 q=-0.0 size=N/A time=00:03:12.35 bitrate=N/A speed=19.6x    frame= 4830 fps=467 q=-0.0 size=N/A time=00:03:21.45 bitrate=N/A speed=19.5x    frame= 5057 fps=466 q=-0.0 size=N/A time=00:03:30.91 bitrate=N/A speed=19.4x    frame= 5303 fps=466 q=-0.0 size=N/A time=00:03:41.17 bitrate=N/A speed=19.4x    frame= 5564 fps=468 q=-0.0 size=N/A time=00:03:52.06 bitrate=N/A speed=19.5x    frame= 5827 fps=470 q=-0.0 size=N/A time=00:04:03.03 bitrate=N/A speed=19.6x    frame= 6085 fps=472 q=-0.0 size=N/A time=00:04:13.79 bitrate=N/A speed=19.7x    frame= 6342 fps=472 q=-0.0 size=N/A time=00:04:24.51 bitrate=N/A speed=19.7x    frame= 6566 fps=471 q=-0.0 size=N/A time=00:04:33.85 bitrate=N/A speed=19.6x    frame= 6778 fps=469 q=-0.0 size=N/A time=00:04:42.69 bitrate=N/A speed=19.5x    frame= 6998 fps=467 q=-0.0 size=N/A time=00:04:51.87 bitrate=N/A speed=19.5x    frame= 7211 fps=466 q=-0.0 size=N/A time=00:05:00.75 bitrate=N/A speed=19.4x    frame= 7408 fps=463 q=-0.0 size=N/A time=00:05:08.97 bitrate=N/A speed=19.3x    frame= 7605 fps=460 q=-0.0 size=N/A time=00:05:17.19 bitrate=N/A speed=19.2x    frame= 7809 fps=459 q=-0.0 size=N/A time=00:05:25.70 bitrate=N/A speed=19.1x    frame= 8010 fps=456 q=-0.0 size=N/A time=00:05:34.08 bitrate=N/A speed=  19x    frame= 8236 fps=456 q=-0.0 size=N/A time=00:05:43.50 bitrate=N/A speed=  19x    frame= 8472 fps=456 q=-0.0 size=N/A time=00:05:53.35 bitrate=N/A speed=  19x    frame= 8687 fps=455 q=-0.0 size=N/A time=00:06:02.32 bitrate=N/A speed=  19x    frame= 8924 fps=455 q=-0.0 size=N/A time=00:06:12.20 bitrate=N/A speed=  19x    frame= 9152 fps=455 q=-0.0 size=N/A time=00:06:21.71 bitrate=N/A speed=  19x    frame= 9372 fps=454 q=-0.0 size=N/A time=00:06:30.89 bitrate=N/A speed=18.9x    frame= 9593 fps=453 q=-0.0 size=N/A time=00:06:40.10 bitrate=N/A speed=18.9x    frame= 9800 fps=452 q=-0.0 size=N/A time=00:06:48.74 bitrate=N/A speed=18.9x    frame=10036 fps=452 q=-0.0 size=N/A time=00:06:58.58 bitrate=N/A speed=18.9x    frame=10286 fps=453 q=-0.0 size=N/A time=00:07:09.01 bitrate=N/A speed=18.9x    frame=10504 fps=452 q=-0.0 size=N/A time=00:07:18.10 bitrate=N/A speed=18.9x    frame=10764 fps=453 q=-0.0 size=N/A time=00:07:28.94 bitrate=N/A speed=18.9x    frame=11042 fps=455 q=-0.0 size=N/A time=00:07:40.54 bitrate=N/A speed=  19x    frame=11308 fps=457 q=-0.0 size=N/A time=00:07:51.63 bitrate=N/A speed=  19x    frame=11578 fps=458 q=-0.0 size=N/A time=00:08:02.89 bitrate=N/A speed=19.1x    frame=11819 fps=458 q=-0.0 size=N/A time=00:08:12.95 bitrate=N/A speed=19.1x    frame=12069 fps=459 q=-0.0 size=N/A time=00:08:23.37 bitrate=N/A speed=19.1x    frame=12290 fps=458 q=-0.0 size=N/A time=00:08:32.59 bitrate=N/A speed=19.1x    frame=12508 fps=457 q=-0.0 size=N/A time=00:08:41.68 bitrate=N/A speed=19.1x    frame=12767 fps=458 q=-0.0 size=N/A time=00:08:52.49 bitrate=N/A speed=19.1x    frame=13071 fps=460 q=-0.0 size=N/A time=00:09:05.16 bitrate=N/A speed=19.2x    frame=13336 fps=462 q=-0.0 size=N/A time=00:09:16.22 bitrate=N/A speed=19.2x    frame=13581 fps=462 q=-0.0 size=N/A time=00:09:26.44 bitrate=N/A speed=19.3x    frame=13829 fps=462 q=-0.0 size=N/A time=00:09:36.78 bitrate=N/A speed=19.3x    frame=14044 fps=461 q=-0.0 size=N/A time=00:09:45.75 bitrate=N/A speed=19.2x    frame=14264 fps=461 q=-0.0 size=N/A time=00:09:54.92 bitrate=N/A speed=19.2x    frame=14458 fps=459 q=-0.0 size=N/A time=00:10:03.01 bitrate=N/A speed=19.1x    frame=14666 fps=458 q=-0.0 size=N/A time=00:10:11.69 bitrate=N/A speed=19.1x    frame=14873 fps=457 q=-0.0 size=N/A time=00:10:20.32 bitrate=N/A speed=19.1x    frame=15066 fps=456 q=-0.0 size=N/A time=00:10:28.37 bitrate=N/A speed=  19x    frame=15302 fps=456 q=-0.0 size=N/A time=00:10:38.22 bitrate=N/A speed=  19x    frame=15552 fps=456 q=-0.0 size=N/A time=00:10:48.64 bitrate=N/A speed=  19x    frame=15806 fps=457 q=-0.0 size=N/A time=00:10:59.24 bitrate=N/A speed=19.1x    frame=16071 fps=458 q=-0.0 size=N/A time=00:11:10.29 bitrate=N/A speed=19.1x    frame=16349 fps=459 q=-0.0 size=N/A time=00:11:21.88 bitrate=N/A speed=19.1x    frame=16583 fps=459 q=-0.0 size=N/A time=00:11:31.64 bitrate=N/A speed=19.1x    frame=16812 fps=459 q=-0.0 size=N/A time=00:11:41.20 bitrate=N/A speed=19.1x    frame=17014 fps=458 q=-0.0 size=N/A time=00:11:49.62 bitrate=N/A speed=19.1x    frame=17215 fps=457 q=-0.0 size=N/A time=00:11:58.00 bitrate=N/A speed=19.1x    frame=17454 fps=457 q=-0.0 size=N/A time=00:12:07.97 bitrate=N/A speed=19.1x    frame=17664 fps=456 q=-0.0 size=N/A time=00:12:16.73 bitrate=N/A speed=  19x    frame=17898 fps=456 q=-0.0 size=N/A time=00:12:26.49 bitrate=N/A speed=  19x    frame=18126 fps=456 q=-0.0 size=N/A time=00:12:36.00 bitrate=N/A speed=  19x    frame=18364 fps=456 q=-0.0 size=N/A time=00:12:45.93 bitrate=N/A speed=  19x    frame=18604 fps=456 q=-0.0 size=N/A time=00:12:55.94 bitrate=N/A speed=  19x    frame=18846 fps=456 q=-0.0 size=N/A time=00:13:06.03 bitrate=N/A speed=  19x    frame=19111 fps=457 q=-0.0 size=N/A time=00:13:17.08 bitrate=N/A speed=19.1x    frame=19371 fps=458 q=-0.0 size=N/A time=00:13:27.93 bitrate=N/A speed=19.1x    frame=19626 fps=458 q=-0.0 size=N/A time=00:13:38.56 bitrate=N/A speed=19.1x    frame=19908 fps=459 q=-0.0 size=N/A time=00:13:50.32 bitrate=N/A speed=19.2x    frame=20195 fps=460 q=-0.0 size=N/A time=00:14:02.29 bitrate=N/A speed=19.2x    frame=20467 fps=461 q=-0.0 size=N/A time=00:14:13.64 bitrate=N/A speed=19.2x    frame=20752 fps=462 q=-0.0 size=N/A time=00:14:25.53 bitrate=N/A speed=19.3x    frame=21006 fps=463 q=-0.0 size=N/A time=00:14:36.12 bitrate=N/A speed=19.3x    frame=21292 fps=464 q=-0.0 size=N/A time=00:14:48.05 bitrate=N/A speed=19.3x    frame=21524 fps=463 q=-0.0 size=N/A time=00:14:57.73 bitrate=N/A speed=19.3x    frame=21738 fps=463 q=-0.0 size=N/A time=00:15:06.65 bitrate=N/A speed=19.3x    frame=21950 fps=462 q=-0.0 size=N/A time=00:15:15.49 bitrate=N/A speed=19.3x    frame=22180 fps=462 q=-0.0 size=N/A time=00:15:25.09 bitrate=N/A speed=19.3x    frame=22462 fps=463 q=-0.0 size=N/A time=00:15:36.85 bitrate=N/A speed=19.3x    frame=22718 fps=463 q=-0.0 size=N/A time=00:15:47.52 bitrate=N/A speed=19.3x    frame=22957 fps=463 q=-0.0 size=N/A time=00:15:57.49 bitrate=N/A speed=19.3x    frame=23211 fps=464 q=-0.0 size=N/A time=00:16:08.09 bitrate=N/A speed=19.3x    frame=23474 fps=464 q=-0.0 size=N/A time=00:16:19.06 bitrate=N/A speed=19.4x    frame=23731 fps=465 q=-0.0 size=N/A time=00:16:29.78 bitrate=N/A speed=19.4x    frame=23986 fps=465 q=-0.0 size=N/A time=00:16:40.41 bitrate=N/A speed=19.4x    frame=24149 fps=463 q=-0.0 size=N/A time=00:16:47.21 bitrate=N/A speed=19.3x    frame=24422 fps=464 q=-0.0 size=N/A time=00:16:58.60 bitrate=N/A speed=19.4x    frame=24692 fps=465 q=-0.0 size=N/A time=00:17:09.86 bitrate=N/A speed=19.4x    frame=24929 fps=465 q=-0.0 size=N/A time=00:17:19.74 bitrate=N/A speed=19.4x    frame=25207 fps=465 q=-0.0 size=N/A time=00:17:31.34 bitrate=N/A speed=19.4x    frame=25474 fps=466 q=-0.0 size=N/A time=00:17:42.47 bitrate=N/A speed=19.4x    frame=25725 fps=466 q=-0.0 size=N/A time=00:17:52.94 bitrate=N/A speed=19.4x    frame=25990 fps=466 q=-0.0 size=N/A time=00:18:03.99 bitrate=N/A speed=19.5x    frame=26233 fps=466 q=-0.0 size=N/A time=00:18:14.13 bitrate=N/A speed=19.5x    frame=26509 fps=467 q=-0.0 size=N/A time=00:18:25.64 bitrate=N/A speed=19.5x    frame=26796 fps=468 q=-0.0 size=N/A time=00:18:37.61 bitrate=N/A speed=19.5x    frame=27051 fps=468 q=-0.0 size=N/A time=00:18:48.25 bitrate=N/A speed=19.5x    frame=27337 fps=469 q=-0.0 size=N/A time=00:19:00.18 bitrate=N/A speed=19.6x    frame=27623 fps=470 q=-0.0 size=N/A time=00:19:12.10 bitrate=N/A speed=19.6x    frame=27892 fps=470 q=-0.0 size=N/A time=00:19:23.32 bitrate=N/A speed=19.6x    frame=28146 fps=470 q=-0.0 size=N/A time=00:19:33.96 bitrate=N/A speed=19.6x    frame=28396 fps=470 q=-0.0 size=N/A time=00:19:44.34 bitrate=N/A speed=19.6x    frame=28642 fps=470 q=-0.0 size=N/A time=00:19:54.61 bitrate=N/A speed=19.6x    frame=28888 fps=471 q=-0.0 size=N/A time=00:20:04.87 bitrate=N/A speed=19.6x    frame=29117 fps=470 q=-0.0 size=N/A time=00:20:14.42 bitrate=N/A speed=19.6x    frame=29384 fps=471 q=-0.0 size=N/A time=00:20:25.55 bitrate=N/A speed=19.6x    frame=29635 fps=471 q=-0.0 size=N/A time=00:20:36.02 bitrate=N/A speed=19.6x    frame=29900 fps=471 q=-0.0 size=N/A time=00:20:47.07 bitrate=N/A speed=19.7x    frame=30170 fps=472 q=-0.0 size=N/A time=00:20:58.34 bitrate=N/A speed=19.7x    frame=30413 fps=472 q=-0.0 size=N/A time=00:21:08.47 bitrate=N/A speed=19.7x    frame=30654 fps=472 q=-0.0 size=N/A time=00:21:18.52 bitrate=N/A speed=19.7x    frame=30898 fps=472 q=-0.0 size=N/A time=00:21:28.70 bitrate=N/A speed=19.7x    frame=31123 fps=471 q=-0.0 size=N/A time=00:21:38.08 bitrate=N/A speed=19.7x    frame=31381 fps=471 q=-0.0 size=N/A time=00:21:48.84 bitrate=N/A speed=19.7x    frame=31662 fps=472 q=-0.0 size=N/A time=00:22:00.56 bitrate=N/A speed=19.7x    frame=31927 fps=472 q=-0.0 size=N/A time=00:22:11.62 bitrate=N/A speed=19.7x    frame=32180 fps=473 q=-0.0 size=N/A time=00:22:22.17 bitrate=N/A speed=19.7x    frame=32424 fps=473 q=-0.0 size=N/A time=00:22:32.35 bitrate=N/A speed=19.7x    frame=32622 fps=472 q=-0.0 size=N/A time=00:22:40.60 bitrate=N/A speed=19.7x    frame=32866 fps=472 q=-0.0 size=N/A time=00:22:50.78 bitrate=N/A speed=19.7x    frame=33098 fps=472 q=-0.0 size=N/A time=00:23:00.46 bitrate=N/A speed=19.7x    frame=33325 fps=472 q=-0.0 size=N/A time=00:23:09.93 bitrate=N/A speed=19.7x    frame=33564 fps=471 q=-0.0 size=N/A time=00:23:19.89 bitrate=N/A speed=19.7x    frame=33752 fps=471 q=-0.0 size=N/A time=00:23:27.73 bitrate=N/A speed=19.6x    frame=34000 fps=471 q=-0.0 size=N/A time=00:23:38.08 bitrate=N/A speed=19.6x    [Parsed_psnr_10 @ 000001bb22114c00] PSNR y:48.683854 u:50.683714 v:50.704522 average:49.256385 min:41.072994 max:inf
[out#0/null @ 000001bb14cdf580] video:14697KiB audio:267516KiB subtitle:0KiB other streams:0KiB global headers:0KiB muxing overhead: unknown
frame=34205 fps=471 q=-0.0 Lsize=N/A time=00:23:46.63 bitrate=N/A speed=19.6x    
